<svg xmlns="http://www.w3.org/2000/svg" width="36" height="36" viewBox="0 0 36 36">
  <g id="map_icon" data-name="map icon" transform="translate(-54)">
    <circle id="Ellipse_5" data-name="Ellipse 5" cx="18" cy="18" r="18" transform="translate(54)" fill="#f5f5f5"/>
    <g id="map_1" data-name="map 1" transform="translate(64 11)">
      <g id="Group">
        <g id="Group-2" data-name="Group">
          <path id="Vector" d="M13.5,0a.5.5,0,0,0-.224.053L9.487,1.948,5.2.043,5.18.037A.5.5,0,0,0,5.121.019a.519.519,0,0,0-.06-.013.744.744,0,0,0-.122,0,.519.519,0,0,0-.06.013.5.5,0,0,0-.059.018L4.8.043l-4.5,2A.5.5,0,0,0,0,2.5v11a.5.5,0,0,0,.7.457L5,12.047l4.3,1.91c.007,0,.015,0,.023,0a.441.441,0,0,0,.378-.008c.008,0,.017,0,.025-.006l4-2A.5.5,0,0,0,14,11.5V.5A.5.5,0,0,0,13.5,0Zm-9,11.175L1,12.731V2.825L4.5,1.27ZM9,12.731,5.5,11.175V1.27L9,2.825Zm4-1.539-3,1.5V2.809l3-1.5v9.882Z" transform="translate(0.001 0)" fill="#84829a"/>
        </g>
      </g>
    </g>
  </g>
</svg>
