<svg xmlns="http://www.w3.org/2000/svg" width="114.912" height="33.994" viewBox="0 0 114.912 33.994">
  <g id="Logo" transform="translate(-140.92 -48.696)">
    <path id="Rectangle_24" data-name="Rectangle 24" d="M1-3l9.5,3,8-8,10,7L39-3,34.5-17.5l-16,5-9-5L0-16Z" transform="translate(214 80)" fill="#f1a501"/>
    <path id="Jadoo" d="M0,23.368V21.206l6.118-1.1v2.99a5.261,5.261,0,0,0,1.242,3.68,4.511,4.511,0,0,0,3.266,1.2,3.981,3.981,0,0,0,3.128-1.288,4.869,4.869,0,0,0,1.2-3.45V.69H21.3V23.23a10.638,10.638,0,0,1-2.99,7.636,10.1,10.1,0,0,1-7.636,3.128A10.6,10.6,0,0,1,2.9,31.1,10.541,10.541,0,0,1,0,23.368Z" transform="translate(140.92 48.696)"/>
    <path id="Jadoo-2" data-name="Jadoo" d="M22.757,27.14a6.032,6.032,0,0,1,1.886-4.646,8.983,8.983,0,0,1,4.876-2.208l5.566-.828q1.7-.23,1.7-1.61a2.614,2.614,0,0,0-1.012-2.116,4.2,4.2,0,0,0-2.806-.828,4.374,4.374,0,0,0-3.082,1.058,4,4,0,0,0-1.242,2.622l-5.428-1.15a7.96,7.96,0,0,1,2.9-5.2,9.966,9.966,0,0,1,6.808-2.254q5.06,0,7.452,2.438a8.343,8.343,0,0,1,2.392,6.164V29.716a20.817,20.817,0,0,0,.276,3.588H37.431a12.748,12.748,0,0,1-.23-2.714,7.375,7.375,0,0,1-6.67,3.358,7.945,7.945,0,0,1-5.658-2.024A6.4,6.4,0,0,1,22.757,27.14Zm9.062,2.254a5.214,5.214,0,0,0,3.542-1.2,5.111,5.111,0,0,0,1.426-4.048V23.138l-5.106.782q-2.806.414-2.806,2.852a2.57,2.57,0,0,0,.782,1.886A3.029,3.029,0,0,0,31.819,29.394Z" transform="translate(140.92 48.696)"/>
    <path id="Jadoo-3" data-name="Jadoo" d="M66.738,0V29.21q0,2.254.184,4.094H61.08a13.453,13.453,0,0,1-.23-2.622,5.681,5.681,0,0,1-2.484,2.3,8.162,8.162,0,0,1-3.864.874A10.4,10.4,0,0,1,46.544,30.5a12.266,12.266,0,0,1-3.082-8.556A12.186,12.186,0,0,1,46.5,13.524a10.088,10.088,0,0,1,7.82-3.4q4.876,0,6.394,2.806V0ZM49.626,21.942A6.845,6.845,0,0,0,51.19,26.68a5.246,5.246,0,0,0,4.048,1.7,5.129,5.129,0,0,0,4-1.748A6.845,6.845,0,0,0,60.8,21.9a6.433,6.433,0,0,0-1.564-4.6,5.193,5.193,0,0,0-4-1.7,5.337,5.337,0,0,0-4.048,1.7A6.6,6.6,0,0,0,49.626,21.942Z" transform="translate(140.92 48.696)"/>
    <path id="Jadoo-4" data-name="Jadoo" d="M75.767,26.726a5.582,5.582,0,0,0,4.094,1.7,5.432,5.432,0,0,0,4.048-1.7,6.4,6.4,0,0,0,1.7-4.738,6.4,6.4,0,0,0-1.7-4.738,5.432,5.432,0,0,0-4.048-1.7,5.582,5.582,0,0,0-4.094,1.7,6.508,6.508,0,0,0-1.656,4.738A6.508,6.508,0,0,0,75.767,26.726Zm-4.416-13.34a11.546,11.546,0,0,1,8.51-3.4,11.394,11.394,0,0,1,8.464,3.4,11.659,11.659,0,0,1,3.4,8.6,11.659,11.659,0,0,1-3.4,8.6,11.394,11.394,0,0,1-8.464,3.4,11.546,11.546,0,0,1-8.51-3.4,11.744,11.744,0,0,1-3.358-8.6A11.744,11.744,0,0,1,71.351,13.386Z" transform="translate(140.92 48.696)"/>
    <path id="Jadoo-5" data-name="Jadoo" d="M98.95,26.726a5.582,5.582,0,0,0,4.094,1.7,5.432,5.432,0,0,0,4.048-1.7,6.4,6.4,0,0,0,1.7-4.738,6.4,6.4,0,0,0-1.7-4.738,5.432,5.432,0,0,0-4.048-1.7,5.582,5.582,0,0,0-4.094,1.7,6.508,6.508,0,0,0-1.656,4.738A6.508,6.508,0,0,0,98.95,26.726Zm-4.416-13.34a11.546,11.546,0,0,1,8.51-3.4,11.394,11.394,0,0,1,8.464,3.4,11.659,11.659,0,0,1,3.4,8.6,11.659,11.659,0,0,1-3.4,8.6,11.394,11.394,0,0,1-8.464,3.4,11.546,11.546,0,0,1-8.51-3.4,11.744,11.744,0,0,1-3.358-8.6A11.744,11.744,0,0,1,94.534,13.386Z" transform="translate(140.92 48.696)"/>
  </g>
</svg>
