<svg xmlns="http://www.w3.org/2000/svg" width="20" height="18.585" viewBox="0 0 20 18.585">
  <g id="heart_6_1" data-name="heart (6) 1" transform="translate(-1140 -2844.708)">
    <g id="Group">
      <g id="Group-2" data-name="Group">
        <path id="Vector" d="M18.364,1.747a5.465,5.465,0,0,0-8.01,0L10,2.119l-.353-.373A5.469,5.469,0,0,0,1.92,1.462q-.147.137-.284.284a6.134,6.134,0,0,0,0,8.34l7.847,8.275a.715.715,0,0,0,1.01.027l.027-.027,7.844-8.275A6.133,6.133,0,0,0,18.364,1.747ZM17.33,9.1h0L10,16.831,2.673,9.1a4.687,4.687,0,0,1,0-6.372A4.04,4.04,0,0,1,8.382,2.5q.119.11.23.23l.871.919a.736.736,0,0,0,1.038,0l.871-.919A4.04,4.04,0,0,1,17.1,2.5q.119.11.23.23A4.644,4.644,0,0,1,17.33,9.1Z" transform="translate(1140 2844.708)" fill="#4152ca"/>
      </g>
    </g>
  </g>
</svg>
