<svg xmlns="http://www.w3.org/2000/svg" xmlns:xlink="http://www.w3.org/1999/xlink" width="385" height="12" viewBox="0 0 385 12">
  <defs>
    <clipPath id="clip-path">
      <rect id="Rectangle_36" data-name="Rectangle 36" width="385" height="12" transform="translate(393 340)" fill="#c4c4c4"/>
    </clipPath>
  </defs>
  <g id="Decore" transform="translate(-393 -340)">
    <g id="Rectangle_36-2" data-name="Rectangle 36" clip-path="url(#clip-path)">
      <path id="Vector" d="M444.2,340.334l.836-.2-1.587-.227.781-.205a12.644,12.644,0,0,0,2.3.088c.076-.148-.761-.178-.967-.29a2.423,2.423,0,0,1-.439-.345,12.492,12.492,0,0,1,1.352.055,12.361,12.361,0,0,0,1.807.086c1.116,0,2.2-.044,3.411-.064l-.382-.344,1.56.051c.164.023.365-.024.526.006a5.341,5.341,0,0,0,2.582-.051,3.278,3.278,0,0,1,.483-.083c1.806.031,3.412.391,5.029.56a7.245,7.245,0,0,1,.849.176,14.373,14.373,0,0,0,1.811.314,13.569,13.569,0,0,0,1.8.085,29.361,29.361,0,0,1,3.979.2,11.65,11.65,0,0,0,1.217.1,7.331,7.331,0,0,0,1.046-.042l.935.182a8.7,8.7,0,0,1,1.539-.163,17.468,17.468,0,0,1,1.949.062c.731.063,1.476.1,2.234.168,1.568.126,3.1.191,4.541.194,2.147.052,4.246.083,6.411.158,1.355.03,2.677.035,3.958.014,1.533-.009,3.187.067,4.88.222h0c-.092.18-.837.142-1.338.146-1.617,0-3.269-.04-4.932-.064-.749-.007-1.478,0-2.183.019-1.178.016-2.417-.006-3.7-.067-2.024-.054-3.985-.06-5.866-.018-.148.01-.284.025-.405.045-.026.016-.032.035-.018.057a.23.23,0,0,0,.1.065,1.111,1.111,0,0,0,.192.056,1.88,1.88,0,0,0,.235.033,17.269,17.269,0,0,0,2.235.223.768.768,0,0,1,.084.007.681.681,0,0,1,.08.016,28.9,28.9,0,0,0,4.084.17c2.031.071,3.993.083,5.856.038.281-.005.584,0,.9.025a48.252,48.252,0,0,0,5.383-.071c.665-.036,1.285-.1,2-.114a6.449,6.449,0,0,0,1.13-.117,1.513,1.513,0,0,0,.652-.262c.3.049.6.092.9.129a2.256,2.256,0,0,0,.49.008c.133-.015.215-.048.229-.092.063-.122-.351-.174-.71-.219a7.381,7.381,0,0,1,.736-.06c1.512-.058,3.13-.058,4.818,0,1.308.084,2.364-.027,3.738.1a1.911,1.911,0,0,0,.457-.031,8.573,8.573,0,0,1,1.447-.062,14.2,14.2,0,0,1,1.7.161c.735-.288,2.266-.007,3.409,0,.344.132-.059.116-.079.154s0,0-.137-.02a20.278,20.278,0,0,1-4.486.213c-.327.007-.64.022-.934.046a13.666,13.666,0,0,1-1.48.023,12.9,12.9,0,0,0-1.589.062,2.925,2.925,0,0,0-.66.074c-.166.044-.266.1-.291.176.175.051.369.1.576.137a15.278,15.278,0,0,0,3.043.138c1.523-.106,3.326-.069,4.942-.128,1.092-.033,2.252-.026,3.457.019l-.04.077c.141.027.29.049.438.063l.016-.032a1.282,1.282,0,0,0-.254-.078l-.356-.051a4.167,4.167,0,0,1,.729-.047,13.187,13.187,0,0,0,1.5.033,6.254,6.254,0,0,0,1.166-.141,12.039,12.039,0,0,1,1.99-.157q.879-.032,1.694-.1s.04-.077.3-.123c-.239-.045-.489-.081-.739-.106-1.089-.052-2.182-.1-3.254-.127-.4,0-.768.019-1.111.048a27.313,27.313,0,0,1-3.119-.046l-.328-.047c.324-.174,1.395-.028,1.84-.15a4.266,4.266,0,0,0,.72-.028.073.073,0,0,1-.006-.108.359.359,0,0,1,.18-.078,1.773,1.773,0,0,1,.331-.032,3.568,3.568,0,0,1,.419.02,28.043,28.043,0,0,0,3.4.011c.385-.007.816.013,1.2.013a4.75,4.75,0,0,0,.631-.027,16.573,16.573,0,0,1,3.547-.1,15.724,15.724,0,0,0,1.832-.021,3.342,3.342,0,0,1,.821.117l1.168.07-1.516.149a1.425,1.425,0,0,0,1.081.354c.767.01,1.514.006,2.238-.011a9.493,9.493,0,0,1,1.7.009,1.8,1.8,0,0,0,.348.008,20.217,20.217,0,0,1,3-.122,7.1,7.1,0,0,1,2.485.08c.3-.136-.229-.184-.544-.257.768-.007,1.542-.028,2.333-.025a6.1,6.1,0,0,1,.794.018,7.419,7.419,0,0,1,.839.119,2.31,2.31,0,0,0,.442.072,1.418,1.418,0,0,0,.381-.016c.415-.065,1.071-.026,1.417-.128a2,2,0,0,1,.488-.018,3.224,3.224,0,0,1,.564.086h0a4.034,4.034,0,0,0-.51.079c-.527.111-.347.274.3.5,1.016-.034,2.053-.051,3-.116a11.051,11.051,0,0,1,1.854,0,14.827,14.827,0,0,1,2.021.292,4.042,4.042,0,0,0,.74.1,1.937,1.937,0,0,0,.585-.047c.083-.045.111-.1.082-.16l-.657-.094.036-.071.955-.029c.5-.011,1.03,0,1.508-.019a19.3,19.3,0,0,1,2.348,0c.78.052,1.547.088,2.295.107.724.021,1.257-.1,1.949-.135.523-.024,1.1-.021,1.7.009a17.405,17.405,0,0,0,2.79-.056,3.364,3.364,0,0,0,2.189.313l.4-.039.1.084.307-.025c.573-.028,1.146-.057,1.742-.075a20.163,20.163,0,0,1,2.58.238,2.061,2.061,0,0,1,.525.178c.141.068.445.277.669.413a6.776,6.776,0,0,0-.758.333.045.045,0,0,0,0,.07.353.353,0,0,0,.128.076,1.434,1.434,0,0,0,.227.067,2.394,2.394,0,0,0,.277.043c.184.02.367.032.54.036.854,0,1.673-.031,2.448-.077a4.942,4.942,0,0,1,1.1-.034,7.716,7.716,0,0,1,1.26.185,26.07,26.07,0,0,1,3.446-.017c1.336-.085,2.938,0,4.191-.152-.033.064.088.171.263.231a9.013,9.013,0,0,0,.932.243l2.622.1a2.255,2.255,0,0,0,.352.229,1.552,1.552,0,0,0,.475.161,3.373,3.373,0,0,0,.642.068,8.439,8.439,0,0,1,1.581.067,16.675,16.675,0,0,1-3.657.029c-1.309-.088-2.572-.119-3.741-.094a3.81,3.81,0,0,0-1.019.1,3.873,3.873,0,0,1-1.788.165,10.936,10.936,0,0,0-1.707.047,3.011,3.011,0,0,0-1.079.285c-.063.122.062.222.619.281l2.318.235q.52-.065.987-.148a11.5,11.5,0,0,1,1.874-.09,19.324,19.324,0,0,1,2.219.186,4.44,4.44,0,0,0,1.049.074c.249-.039.478-.085.687-.136a.113.113,0,0,0,.056-.109c.148.016.3.037.438.063a6.856,6.856,0,0,0,2.842.186c.221-.03.391-.075.616-.112a2.125,2.125,0,0,1,.507-.072c1.605.078,2.093-.3,3.451-.313.067-.016.11-.038.124-.065s0-.057-.044-.089a2.356,2.356,0,0,0-.318-.067,2.694,2.694,0,0,0-.339-.027,6.39,6.39,0,0,0-1.565.073c-.274.036-.564.066-.868.089l-1.326-.506c1.315.022,2.561,0,3.711-.076a10.211,10.211,0,0,1,1.024.008l2.586,0a5.572,5.572,0,0,1,1.721.081,4.535,4.535,0,0,0,.621-.008c.133-.029.723-.207,1.076-.322a10,10,0,0,0,1.2.062,7.361,7.361,0,0,0,1.145-.284l1.555.119a.6.6,0,0,1-.195.379.251.251,0,0,0-.013.391,1.9,1.9,0,0,0,.707.431l1.494.751a5.089,5.089,0,0,0,.763.085,2.711,2.711,0,0,0,.623-.039c.67-.1,1.419-.19,2.09-.294.848.121.614.349,1.224.533l2,.285c.288.3.584.579-.359.7-.187.021-.069.135-.242.186a19.413,19.413,0,0,0,2.238.389,3.784,3.784,0,0,1,.7.3,3.03,3.03,0,0,0,1.11.436,8.732,8.732,0,0,0,1.668.216c.919.066,1.857.175,2.773.32a9.06,9.06,0,0,0,.946.1,6.543,6.543,0,0,0,.854,0,10.888,10.888,0,0,0,2.243-.306,10.5,10.5,0,0,1,2.228-.219,9.467,9.467,0,0,1,2.688.887l-1.592.069c-.066.128.029.287-.623.3s-.329.125-.125.244a1.118,1.118,0,0,0,.4.172,3.66,3.66,0,0,0,.632.107l1.343.13a8.909,8.909,0,0,0,1.338.047,3,3,0,0,0,.923-.158,4.014,4.014,0,0,1,.939-.169,5.388,5.388,0,0,0,1.209-.3l1.9.134a1.187,1.187,0,0,1,.758-.251,7.273,7.273,0,0,1,1.445.021l1.281.08c1.424.086,1.741.042,2.182-.3l-1.679-.564c.26-.163.51-.306.76-.449A8.541,8.541,0,0,0,652.7,348q-.9-.234-1.854-.451c-.688-.147-1.417-.271-2.273-.435-.148-.056-.361-.155-.636-.249s-.562-.181-.861-.268c.066-.128.125-.244.024-.389a13.157,13.157,0,0,1,1.591.207,8.618,8.618,0,0,1,1.347.364,1.536,1.536,0,0,0,.225.067,2.566,2.566,0,0,0,.275.046,4.273,4.273,0,0,1,1.813.473,6.106,6.106,0,0,0,1.121.277c.821.117,1.622.273,2.406.406.24.045.489.08.739.106.823.08,1.649.2,2.436.348a5.626,5.626,0,0,1,.718.149,2.364,2.364,0,0,1,.513.2c-.2.084-.316.188-.332.3-.04.077.533.221.8.328s-.268.065-.452.08c-.753.037-.9.086-.462.327a.647.647,0,0,1,.278.225.147.147,0,0,1-.056.2c-.122.237-.46.437-.7.672.337.145.906.295.957.481a.442.442,0,0,0,.179.125,2.026,2.026,0,0,0,.344.115,6.542,6.542,0,0,1,.949.258,1.932,1.932,0,0,1,.582.305.61.61,0,0,0,.267.124,2.408,2.408,0,0,0,.453.075,1.831,1.831,0,0,0,.475-.016c.116-.024.17-.066.15-.115a.525.525,0,0,0-.056-.29.177.177,0,0,0-.045-.255,12.81,12.81,0,0,1,1.7.21,8.064,8.064,0,0,1,1.421.395c.419.156.8.322,1.268.5-.112.218-.112.218.877.58l5.365.078,1.086.231a3.827,3.827,0,0,0,1.912.053l.441-.116a5.144,5.144,0,0,0,2.532-.01c.174.176.291.234.247.263a3.581,3.581,0,0,1-1.444.7c-.17.045-.292.11-.489.151-.641.22-.808.544-.465.9a3.12,3.12,0,0,0,.752.48,8.851,8.851,0,0,1-1.985.605,7.658,7.658,0,0,0-1.687.482,5.754,5.754,0,0,1-1.7.446,1.88,1.88,0,0,0-.791.225,1.068,1.068,0,0,0,.234.86.71.71,0,0,0,.348.284,3.983,3.983,0,0,0,.75.266s.144.062.213.1c.038.328-.2.622-.708.863a1.046,1.046,0,0,1-.484.147,4.775,4.775,0,0,1-.834.016c-.662-.026-1.283-.018-1.925-.027a8.9,8.9,0,0,0-1.771.107,1.44,1.44,0,0,0-.891.388.307.307,0,0,1-.069.135.126.126,0,0,0-.036.071l1.442.509-1.685.248c-.112.218.682.332,1.073.484l-.254.095a4.285,4.285,0,0,1-1.134-.079l-.383-.055-.053.1c-.25.143-1.119.005-1.469.114s-.112.218.395.318a9.966,9.966,0,0,0,1.11.169,8.751,8.751,0,0,0,1.074.04,2.141,2.141,0,0,0,.483-.083c.7-.173,1.479-.324,2.319-.454a13.87,13.87,0,0,1,2.351-.174,4.9,4.9,0,0,1,.9.05,4.061,4.061,0,0,1,.824.2h0l.468,0s.251.084.213.1c-.2.268-.009.587.532.91h0l-.491.04c-.7-.017-.266.176-.377.277a4.218,4.218,0,0,0-1.378.051l-.351,0,.137.02.17-.045.645.175c-.313.038-.541.081-.817.1a1.3,1.3,0,0,0-.36.084c-.085.038-.13.083-.134.135,0,.079-.09.147-.25.2a2.612,2.612,0,0,1-.663.092,3.477,3.477,0,0,0-.714.132l.8.5s-.41-.059-.191.028l.033-.064.5.119a1.262,1.262,0,0,0,.83.043c.22-.086.164.023.269-.01-.043.083-.281.146-.484.2a7.876,7.876,0,0,1-.786.1c.494.353.518.363-.244.475s-.511.251-1.145.284.07.265.49.3a8.81,8.81,0,0,1,.929.125,6.235,6.235,0,0,1,.81.206l-.145.282c-.185-.019-.369-.046-.547-.078a4.191,4.191,0,0,0-1.7-.174l.246.207-1.9-.085c.039.158.317.334.776.49h0a.686.686,0,0,0-.148.289c-.036.071-.221.03-.344.04a4.127,4.127,0,0,0-1.05.159c-.253.084-.391.195-.4.322-.056.109.6.32,1.019.3a33.145,33.145,0,0,1,3.316.178,6.609,6.609,0,0,1,1.967-.112c.015.131-.141.24-.442.311a4.955,4.955,0,0,1-1.229.084c.264.286,1.828.33,1.878.633a9.415,9.415,0,0,1-1.2-.122,7.1,7.1,0,0,1-1.07-.257,1.475,1.475,0,0,0-.239-.067,2.337,2.337,0,0,0-.287-.038,1.75,1.75,0,0,0-.263,0,.538.538,0,0,0-.174.037c.21.106.441.228.706.342a1.581,1.581,0,0,0,.522.185c1.45.207,2.12.62,3.37.874.328.047.359.217.072.2a3.88,3.88,0,0,0-.717.022.739.739,0,0,0-.392.137,4.574,4.574,0,0,1-.8.182,30.777,30.777,0,0,0,4.434,1.033,5.863,5.863,0,0,0,.926.084c.924-.018,1.9,0,2.915.044a7.835,7.835,0,0,0,.982-.025,4.584,4.584,0,0,1,2.354.336l1.1.488c-.043.083-.239.179-.394.309l.868.255,6.8-.765,1.317.581,1.947-.073c.148.015.3.036.438.063.382.172.678.338,1.094.5s1.177.168,1.7.359a9.4,9.4,0,0,0,1.7.291c.052.155-.021.3-.214.417-.069.135-.409.224-.475.352,0,.128-.133.24-.382.325a3.994,3.994,0,0,1-1.043.161,29.928,29.928,0,0,1-4.4.667,1.593,1.593,0,0,0-.362.062.264.264,0,0,0-.167.111c-.006.125-.124.235-.347.322a3.5,3.5,0,0,1-.941.183.6.6,0,0,0-.231.05.765.765,0,0,0-.322.094.092.092,0,0,0-.023.15.711.711,0,0,0,.282.168,3.116,3.116,0,0,0,.514.142q.429.095.877.18c-.02.039-.32.051-.278.084.111.107.132.21.061.3a.854.854,0,0,1-.471.215l1.557.856a13.794,13.794,0,0,1,2.664.532c0,.042-.048.078-.133.1a1.405,1.405,0,0,1-.355.047c-.4.026-.77.069-1.2.1a2.912,2.912,0,0,0-.642.11.515.515,0,0,0-.308.2l.927.312c-.309.087-.537.13-.741.184a1.727,1.727,0,0,0,.551.3,6.191,6.191,0,0,0,.923.259c.095.015.191.025.285.03a2.146,2.146,0,0,0,.259,0,6.734,6.734,0,0,1,2.409.227c.822.173,1.268.278,1.874.412l1.177,0a4.829,4.829,0,0,1,.762.224,1.2,1.2,0,0,1,.431.257c-.073.141-.626.076-.961.1a14.193,14.193,0,0,1-2.941.007,4.7,4.7,0,0,0-.829.012q-.872.044-1.677.119-.53.065-.99.155c-.092.18,1.172.292.444.394a1.736,1.736,0,0,0,.465.066,15.56,15.56,0,0,0,2.319.118,34.314,34.314,0,0,1,4.449.146,36.223,36.223,0,0,0,4.779.132,14.569,14.569,0,0,1,1.782.076,20.2,20.2,0,0,0,2.156.15,5.921,5.921,0,0,1,.735.037,6.252,6.252,0,0,1,.739.125h0c-.023.045-.248.082-.2.1a10,10,0,0,0,2.024.978,5.408,5.408,0,0,0,2.086.057c.5-.17.332-.3-.613-.694a3.9,3.9,0,0,1,.714.04,3.233,3.233,0,0,1,.654.156l.821.289.739.278-.2.385c-.095.13-.01.284.243.441a3.215,3.215,0,0,1,.4.257c.451.341.567.671.334.95a6.779,6.779,0,0,1-1.781,1.123,17.79,17.79,0,0,0-1.891,1.108,7.185,7.185,0,0,1-1.2.449c-.885.294-1.853.576-2.741.876s-1.884.523-2.866.775q-2.185.458-4.7.809c-1.041.2-2.109.388-3.074.608a30.787,30.787,0,0,1-3.962.564,29.182,29.182,0,0,0-3.525.571.92.92,0,0,0-.254.095,2.5,2.5,0,0,1-1.479.478,1.173,1.173,0,0,0,.164.2c.1.078.117.153.049.214a.845.845,0,0,1-.432.131,7.034,7.034,0,0,0-1.51.308.4.4,0,0,0-.261.142c-.03.058,0,.124.089.192s.08.136.005.189a.942.942,0,0,1-.423.109c-.518.078-1.072.144-1.658.2a32.8,32.8,0,0,1-4.243.083c-.164-.023-.334.021-.526-.006a16.661,16.661,0,0,0-2.944.013c-.965.048-1.971.063-2.987.1a40.042,40.042,0,0,0-4.032.244,30.042,30.042,0,0,0-3.31.154c-1.072.042-2.089.111-3.043.206-1.536.132-3.066.251-4.582.4-1.418.085-2.728.219-3.906.4a9.526,9.526,0,0,0-1.57.141,5.708,5.708,0,0,1-1.429.209l-1.577.154c-.272.034-.57.059-.889.073-1.46.039-2.483.258-3.84.326l-.137-.02a73.966,73.966,0,0,1-8.2.647c-1.769.126-3.7.161-5.571.265-.455.142-1.5,0-2.065.132a15.313,15.313,0,0,1-2.2.106c-.723.035-1.431.1-2.2.113a7.321,7.321,0,0,0-1.655.191,22.213,22.213,0,0,1-3.388.363c-1.715.079-3.34.212-5.08.225.017.123-.1.231-.329.311a3.638,3.638,0,0,1-.993.147c-1.865.085-3.561.242-5.45.317l-.5.011-5.647.185c-1.521.044-2.987.1-4.539.144-.575-.082-.6.08-1,.057a.5.5,0,0,0-.438-.063l-.049.1-6.448.257c-2.527.144-5.181.225-7.939.244-.655.023-1.269.067-1.83.131-.518.03-1.058.049-1.616.058q-1.13-.013-2.207.008c-1.889.075-3.868.1-5.932.11s-3.632.094-5.471.128c-1.245.022-2.483.031-3.77.019-.614-.005-1.366-.085-2-.107s-.843-.017-.931.039a4.464,4.464,0,0,1-1.534.07c-1.085,0-1.236-.053-1.506-.443l1.342-.153a6.817,6.817,0,0,1,1.195-.045,11.1,11.1,0,0,1,1.4.146c.182.034.372.06.56.076a4.974,4.974,0,0,0,.537.019c1.347-.049,2.676-.121,3.972-.183l.191-.028.035-.353c-.169-.031-.344-.056-.52-.074l-6.471-.1c-1.485-.026-3.022-.122-4.479-.144s-2.242-.038-3.372-.068c-.476-.021-.961-.051-1.452-.09a.221.221,0,0,0,.056-.109c.03-.058.069-.135-.137-.192a4.019,4.019,0,0,0-.843-.189c-.3-.025-.592-.036-.864-.034a21.762,21.762,0,0,1-4.153-.435l-.491.212c-2.048-.072-4.128-.142-6.268-.207a11.807,11.807,0,0,1-1.309-.139c-.465-.066-.888-.216-1.377-.293-.485-.053-.967-.091-1.439-.116a2.356,2.356,0,0,1,.509-.134.943.943,0,0,0,.424-.1c.074-.051.069-.116-.013-.184-.145-.117-.205-.229.129-.25a1.4,1.4,0,0,0,.646-.184c.112-.087.108-.192-.013-.3a.59.59,0,0,1-.106-.194h0l-.137-.02a14.984,14.984,0,0,0-1.987-.477,5.443,5.443,0,0,0-.9-.074c-.72-.027-1.423-.031-2.168-.069-.356-.017-.726-.054-1.09-.108-.52-.074-.575-.082-.86-.385a3.07,3.07,0,0,0,1.072-.152c.22-.094.267-.223.134-.365-.371-.308-.762-.632-2.516-.821q.866-.034,1.667-.1a.835.835,0,0,0,.336-.073c.064-.037.071-.085.021-.136a.792.792,0,0,0-.3-.151,3.109,3.109,0,0,0-.517-.112,20.46,20.46,0,0,0-2.789-.288c-.761-.005-1.45.02-2.34.038l-1.04-.149c.02-.039-.131-.088-.091-.109.28-.2.587-.4.9-.615a5.873,5.873,0,0,1-1.186-.371c-.3-.139-.47-.282-.5-.413a.074.074,0,0,1,.027-.107.517.517,0,0,1,.212-.073,1.94,1.94,0,0,0,.633-.155c.138-.071.195-.158.165-.254l-.794-.341c-2.444-.205-4.849-.338-7.169-.4l-2.1-.038c-.247-.09-.166-.134.073-.141s.908.006,1.375.01a5.6,5.6,0,0,0,1.045-.057,1.057,1.057,0,0,0,.564-.216l-.679-.393c.04-.077.1-.186.478-.187a1.248,1.248,0,0,0,.554-.12c.1-.064.089-.145-.021-.231a.168.168,0,0,1,.089-.173c.566-.016,1.129-.025,1.644-.055a2.832,2.832,0,0,0,.6-.081.491.491,0,0,0,.293-.164c.023-.064-.018-.135-.118-.208a1.744,1.744,0,0,0-.459-.212,8.052,8.052,0,0,0-2.047.038,2.714,2.714,0,0,1-.838.122,7.59,7.59,0,0,1-1.185-.073,7.066,7.066,0,0,0-1.33-.065,1.55,1.55,0,0,0-.79.19c-.485-.028-.915-.048-1.339-.081a8.667,8.667,0,0,0-1.372-.017c-.635.029-1.318.034-2.033.013-2.062-.047-4.127-.087-6.126-.083-.529,0-.989.038-1.511.025a8.737,8.737,0,0,1-1.588-.055,3.14,3.14,0,0,0-.364-.029,1.812,1.812,0,0,0-.3.017,29.919,29.919,0,0,1-3.969.122c-2.009.023-4.091.015-6.1.044-.591.022-1.151.059-1.673.112q-.6.05-1.244.077c-.331.015-.645,0-.6.135s-.442.061-.726.041c-.976-.047-1.971-.118-2.976-.212a27.138,27.138,0,0,0-2.859-.154,9.209,9.209,0,0,1-2.142-.12.406.406,0,0,1,.259-.218,17.631,17.631,0,0,0-2.232-.459,19.966,19.966,0,0,0-2.366-.2l-1.02-.359c-.254-.039-.515-.067-.765-.08a5.614,5.614,0,0,0-.693,0,2.876,2.876,0,0,1-.543-.029,2.372,2.372,0,0,1-.5-.12,4.214,4.214,0,0,0-.686-.152,4.923,4.923,0,0,0-.737-.051,16.972,16.972,0,0,1-2.2-.232c-.186-.078-.3-.16-.329-.237s.03-.143.167-.193c.223-.087.352-.194.379-.316s-.048-.255-.221-.392c-.088-.084-.113-.165-.076-.238a.483.483,0,0,1,.294-.185c.586-.226.441-.343-.473-.681a3.842,3.842,0,0,0-.528-.152,6.131,6.131,0,0,0-.633-.1c-.511-.048-1.017-.081-1.506-.1-.274-.039-.56,0-.877-.008-1.588-.055-1.812-.19-2.308-.481l-.362-.21a19.755,19.755,0,0,0-2.206-.384,19.534,19.534,0,0,0-2.226-.139,5.474,5.474,0,0,1-.905-.067,28.649,28.649,0,0,0-3-.277,13.276,13.276,0,0,1-1.871-.2,8.992,8.992,0,0,1-1.6-.422,7.7,7.7,0,0,0-1.453-.373c-.657-.094-.71-.219-.333-.323s1.006-.242,1.563-.355c.194-.039.316-.1.354-.17s-.012-.156-.143-.241a.444.444,0,0,1-.018-.423c.034-.055.017-.117-.05-.182a1.1,1.1,0,0,0-.341-.194,3.875,3.875,0,0,0-.569-.171,6.506,6.506,0,0,0-.7-.117c-1.013-.145-2-.285-3.033-.385-.434-.048-.866-.11-1.286-.184-.858-.186-1.779-.337-2.71-.442a5.688,5.688,0,0,1-1.2-.247c-1.025-.3-1.966-.611-2.808-.939a4.4,4.4,0,0,0-.78-.29,9.266,9.266,0,0,0-1.041-.225,5.035,5.035,0,0,1-.771-.214c-.16-.163-.168-.317-.024-.447a1.746,1.746,0,0,1,.847-.3c.391-.075.758-.16,1.1-.25a10.49,10.49,0,0,1,1.427-.147,3.273,3.273,0,0,0,1.369-.321,22.971,22.971,0,0,0-4.888-.492l-1.144-.232.142-.276c.286-.156.384-.348.287-.558a.165.165,0,0,1,.041-.272,1.418,1.418,0,0,1,.6-.167c1.656-.308,3.563-.531,5.12-.874a13.152,13.152,0,0,1,1.673-.112c.6-.031.587-.171-.095-.33q-.575-.124-1.171-.236c-1.774.022-2.524.452-4.541.378l-.9-.529c-.253,0-.5,0-.737,0l-3.41.291a1.915,1.915,0,0,0-.643.123c-.136.063-.181.145-.129.236a.329.329,0,0,1-.158.308c-.078.065-.036.147.117.23.345.187-.115.225-.408.279a2.012,2.012,0,0,1-.251,0c-.091,0-.187-.013-.281-.026a2.6,2.6,0,0,1-.268-.052,1.432,1.432,0,0,1-.213-.07c-.5-.174-.931-.36-1.419-.554.368-.2-.03-.514.537-.7.064-.037.092-.08.081-.128s-.06-.1-.144-.15c-.217-.132-.316-.263-.287-.38s.185-.215.453-.285l.036-.071c-.68-.221-.482-.434-.739-.677l-.658-.149a8.434,8.434,0,0,0-3.073-.308c-.279-.143.089-.173.365-.2l2.313-.214c1.512-.142,3.066-.251,4.751-.327s3.568-.255,5.312-.391a.581.581,0,0,0,.2-.049c.042-.023.058-.051.044-.081a1.454,1.454,0,0,0-.259-.089,2.91,2.91,0,0,0-.338-.065c-.547-.078-1.111-.124-1.7-.187L430.4,370l-.327-.164a2.833,2.833,0,0,0-.643-.292,5.73,5.73,0,0,0-.75-.107,4.343,4.343,0,0,0-.692,0c-.552.045-1.052.1-1.58.16s-.82.11-1.277.141q-1.388.043-2.683.133c-.73.116-1.407.249-2.026.4a4.752,4.752,0,0,1-1.391.077,2.973,2.973,0,0,1-.736-.224c-.171-.086-.241-.174-.2-.247a.48.48,0,0,1,.3-.137,2.938,2.938,0,0,1,.592-.046c.654-.024,1.26-.071,1.806-.142a17.8,17.8,0,0,1,2.713-.191,7.229,7.229,0,0,0,.893-.079,5.061,5.061,0,0,1,.907-.05,7.981,7.981,0,0,0,2.208-.181c.217-.044.354-.11.4-.191s-.013-.175-.159-.271a7.252,7.252,0,0,0-1.03-.567,4.685,4.685,0,0,0-.787-.25,8.572,8.572,0,0,0-.994-.17c-.2-.116-.3-.232-.3-.337s.112-.2.318-.267a5.074,5.074,0,0,1,2.131-.26,14.874,14.874,0,0,0,1.5-.012,24.152,24.152,0,0,1,3.383.1c.312.03.619.048.912.055,2.092.044,4.088.047,6.091.037,1.061-.007,2.132-.033,3.238-.013,2.594.04,4.964-.056,7.471-.076a23.925,23.925,0,0,0,3.479-.254,3.024,3.024,0,0,0,.5-.17,16.089,16.089,0,0,0-2.041-.324,13.809,13.809,0,0,0-1.964-.056,6.309,6.309,0,0,1-1.2.048,10.449,10.449,0,0,1-1.413-.16h0l1.363-.081c.9-.043,1.828-.07,2.707-.123,1.4-.09,2.7-.214,4.141-.283a24.269,24.269,0,0,0,3.113-.341,20.249,20.249,0,0,1,2.2-.272,1.413,1.413,0,0,0,.957-.263,2.349,2.349,0,0,0-1.013-.145c-2.122-.047-4.146-.021-6.031.075a16.746,16.746,0,0,0-2.5.229,4.626,4.626,0,0,1-.955.029c-1.093,0-2.14.027-3.127.084a44.769,44.769,0,0,1-4.489.047c-.3-.1.053-.1.073-.141,1.254-.1,2.484-.2,3.762-.289.35-.029.723-.047,1.115-.054a12.82,12.82,0,0,0,3.508-.367c.046-.09.575-.09.813-.153a.512.512,0,0,0,.239-.179,2.249,2.249,0,0,0-1.013-.145q-1.293.054-2.488.154c-.739.063-1.555.093-2.424.088-.642-.009-1.194.036-1.842.04-.351-.012-.713-.036-1.079-.072a7.48,7.48,0,0,1,1.651-.24c.51-.079,1.144-.112,1.237-.292a1.287,1.287,0,0,0-.712-.1c-.445.009-.875.025-1.289.05-.877.054-1.824.074-2.821.059-.525,0-1.025.012-1.49.042-1.053.049-2.065.132-3.03.18-1.974.069-3.78.211-5.679.3a6.448,6.448,0,0,1-1.355.006c-.551-.072-.575-.082-.637-.132-.15-.083-.192-.165-.117-.23a1.521,1.521,0,0,1,.612-.105c1.7-.129,3.316-.294,4.836-.494a11.541,11.541,0,0,0,1.739-.241,10,10,0,0,1,1.348-.166q1.113-.1,2.314-.159a4.749,4.749,0,0,0,.936-.13.954.954,0,0,0,.494-.252l-.957-.309q-.229-.018-.454-.03l-8.137.4-.8.023a3.5,3.5,0,0,1-1.9-.41,14.006,14.006,0,0,0,4.4-.846c-.224-.039-.454-.072-.684-.1-1.519-.065-2.959-.062-4.265.011-.774.02-1.569.024-2.367.034a5.563,5.563,0,0,1,1.723-.209,26.376,26.376,0,0,0,3.683-.48,7.787,7.787,0,0,1,1.324-.176,5.373,5.373,0,0,0,1.26-.165c.313-.091.5-.214.535-.357a.9.9,0,0,1,.335-.366,4.57,4.57,0,0,0-1.228-.393,8.972,8.972,0,0,0-1.6-.169c-1.085-.042-2.209-.124-3.341-.243a14.842,14.842,0,0,0-1.629-.088,8.87,8.87,0,0,1-1.447-.118,6.387,6.387,0,0,1-1.263-.324c-.446-.16-.862-.323-1.278-.486s-.9-.369-1.382-.569c-.437-.024-.864-.036-1.273-.037a6.964,6.964,0,0,1-1.07-.044,7.277,7.277,0,0,1-1.067-.2h0c.2-.1.416-.182.65-.293a1.873,1.873,0,0,1-.636-.409.278.278,0,0,1-.047-.377c.053-.1-.274-.267-.383-.4-.143-.113-.164-.221-.061-.31a1.281,1.281,0,0,1,.639-.186,3.945,3.945,0,0,0,.944-.237c.078-.026.118-.061.119-.1s-.04-.084-.116-.128a1.454,1.454,0,0,0-.323-.123,3.449,3.449,0,0,0-.451-.089,14.466,14.466,0,0,0-1.445-.1q-1.191-.026-2.283-.016a19.184,19.184,0,0,1-2.583-.176,5.576,5.576,0,0,1-1.881-.455,8.521,8.521,0,0,0-1.474-.39,3.692,3.692,0,0,1,1.417-.356,4.723,4.723,0,0,0,1.041-.164.793.793,0,0,0,.493-.306l-1.431-.473a21.451,21.451,0,0,0-3.069-.087l1.313-.212a.061.061,0,0,0,.033-.064c-.1-.373-.3-.449-1.615-.63l-.739-.106-1.173-.119a.867.867,0,0,1-.365-.225c-.055-.074-.036-.143.053-.2.179-.094.239-.211.175-.34-.109-.084-.113-.164-.012-.225a1.324,1.324,0,0,1,.566-.11c.211-.011.233-.111.352-.17a1.537,1.537,0,0,1,.583-.187,5.917,5.917,0,0,1,.954-.062c1.073-.014,2.084-.064,3.014-.148l-.164-.023a23.469,23.469,0,0,0,2.661-.033c.8-.072,1.821-.057,2.67-.108a3.42,3.42,0,0,0,1.476-.244,5.742,5.742,0,0,1,1.793-.116c.4.009.78.009,1.146,0a9.133,9.133,0,0,1,1.738.048,4.046,4.046,0,0,0,.543.029c1.614,0,3.225.013,4.818,0a8.013,8.013,0,0,1,1.239.046,3.135,3.135,0,0,0,.519.019c2.523-.108,5.357-.02,7.831-.149.3-.025.632-.035.986-.031a8.075,8.075,0,0,0,1.973-.125,5.352,5.352,0,0,1,.983-.107,10.987,10.987,0,0,1,1.254.041,11.8,11.8,0,0,0,1.979-.02c1.087-.068,2.227-.11,3.413-.125a5.212,5.212,0,0,0,.937-.071,1.1,1.1,0,0,0,.525-.2,1.8,1.8,0,0,0-.9-.129c-1.17-.009-2.338-.024-3.487-.016-1.027-.023-2.015-.016-2.948.02a7.773,7.773,0,0,1-1.6-.091,10.259,10.259,0,0,0-1.988-.133c-.438.012-.9.011-1.379,0a6.944,6.944,0,0,1-.9-.129,3.44,3.44,0,0,0-.364-.064,3.513,3.513,0,0,0-.37-.027,2.128,2.128,0,0,0-.314.016.643.643,0,0,0-.2.055,7.643,7.643,0,0,1-2.294.12,28.514,28.514,0,0,0-3.4-.251,2.592,2.592,0,0,0-.272-.016,1.5,1.5,0,0,0-.227.014c-2.314.159-5,.12-7.421.207a5.928,5.928,0,0,1-.891-.038,26.345,26.345,0,0,0-5.584-.109,5.51,5.51,0,0,1-.624.014,21.664,21.664,0,0,0-2.9-.07c-1.361.019-2.671.052-4.053.055a12.259,12.259,0,0,0-2.433.162,3.916,3.916,0,0,1-.768.007c-.179-.108-.335-.206-.521-.3a2.925,2.925,0,0,0-.732-.349,8.411,8.411,0,0,0-1.112-.293c-.712-.1-.773-.269-.265-.341a27.806,27.806,0,0,1,4.788-.342c1.542-.028,3.111-.052,4.673-.063.911,0,1.87.019,2.757.008.3.009.6.025.915.048a10.688,10.688,0,0,0,1.093.046,33.995,33.995,0,0,1,3.6.019c.472.011.925.009,1.354-.006,1.016-.047,2.114-.05,3.265-.009.716.022,1.411.027,2.078.014.235,0,.429-.035.655-.017,1.983.2,3.409,0,5.2.054.872.008,1.707-.009,2.493-.05q2.3-.045,4.708-.016c2.123.042,4.1-.028,6.127-.034.4,0,.788-.01,1.16-.027,1.808-.1,3.766-.127,5.826-.077a8.207,8.207,0,0,0,1.241-.073,2.386,2.386,0,0,0,.794-.229c.075-.067.035-.151-.113-.237-.248-.108-.529-.213-.838-.313l-11.48-.125c-.482-.009-.952-.009-1.409,0q-2.015.036-4.142,0c-1.4-.021-2.74.015-4.1.028q-.6,0-1.228-.01c-2.828-.088-5.588-.121-8.262-.1-1.126.018-2.338-.024-3.484-.022s-2.716.025-4.077.044l-4.216.087c-.829.012-1.637.042-2.442.064a6.777,6.777,0,0,0-2.565-.725,9.093,9.093,0,0,0-1.3-.1c-1.3.063-2.908-.057-4.136-.012a7.973,7.973,0,0,0-1.829.186,12.259,12.259,0,0,1-1.351.227c-1.337-.37-1.441-.626-.409-.747a7.926,7.926,0,0,0,.865-.083,2.086,2.086,0,0,1,.462-.06,4.837,4.837,0,0,1,.615.021,12.016,12.016,0,0,0,1.877.006,11.053,11.053,0,0,1,1.808-.031,5.448,5.448,0,0,0,1.37-.094,5.767,5.767,0,0,1,1.456-.033,3.04,3.04,0,0,0,.355.024,1.642,1.642,0,0,0,.29-.021,17.028,17.028,0,0,1,2.514-.033c1.424.038,2.764.014,3.974-.073a10.108,10.108,0,0,0,1.84-.323,2.121,2.121,0,0,1,.575-.09,35.6,35.6,0,0,1,3.846.233c.5.061,1,.107,1.487.137,1,.069,1.978.1,2.892.089,1.329-.025,2.71-.019,4.132.019.878.019,1.725.016,2.532-.01.829-.021,1.711-.011,2.628.031a11.077,11.077,0,0,0,2.328-.129,1.973,1.973,0,0,0,.488-.206,20.048,20.048,0,0,0-3.857-.269,6.85,6.85,0,0,1-1.257-.069l-.016.032a1.454,1.454,0,0,1-.39.022,2.6,2.6,0,0,1-.467-.068h0l.165-.321q1.316,0,2.555-.055c.7-.038,1.624.156,2.229.064,1.165.077,1.92-.077,2.967-.058s2.2.128,3.244.147c.915,0,1.8-.01,2.664-.04a7.963,7.963,0,0,1,1-.008,8.061,8.061,0,0,0,1.379,0,1.881,1.881,0,0,0,.825-.225c-.128-.094-.3-.215-.5-.34a6.1,6.1,0,0,1,1.669-.161l.982-.025a1.327,1.327,0,0,0,.561-.091c.1-.056.092-.132-.024-.211a5.63,5.63,0,0,0-3.285-.125l-1.807-.086Zm24.469.63-.137-.02Zm223.3,39.063-.036.071.04-.077.3.043.023-.045Zm-42.193-29.769q-.638-.1-1.286-.184a2.143,2.143,0,0,0-.311,0,.7.7,0,0,0-.211.043c-.04.077.2.125.419.156a6.2,6.2,0,0,0,.82.072,3.268,3.268,0,0,0,.665-.046l.252-.033ZM427.13,373.34c.282.007.551,0,.8-.01,1.1-.084,2.156-.195,3.284-.275a41.918,41.918,0,0,1,4.84-.273,6.99,6.99,0,0,0,1.7-.17,4.988,4.988,0,0,1,.94-.114l4.718-.263a4.772,4.772,0,0,0,.758-.16l-.848-.121a3.994,3.994,0,0,0-.862.077,3.449,3.449,0,0,1-1.114.11q-.723-.013-1.409,0c-.863.021-1.732.056-2.6.083a6.011,6.011,0,0,1-2.188.142l-.658.023q-3.235.235-6.179.591a5.859,5.859,0,0,0-.973.178c-.1.058-.138.128-.105.205l-.137-.02ZM521.758,392.3c.521,0,1.061.024,1.615.059.426.038.842.058,1.233.059,2.189,0,4.466.072,6.8.2.3.02.6.028.87.021l1.923-.083c.607-.037.62-.063.2-.392-.361-.058-.727-.11-1.095-.156a1.751,1.751,0,0,0-.662-.026,9.093,9.093,0,0,1-2.237.066c-2.273-.035-4.615-.108-6.909-.16-.485-.014-.955-.017-1.406-.008a6.2,6.2,0,0,0-.757.043.728.728,0,0,0-.159.024.121.121,0,0,0-.076.046c-.009.018,0,.039.021.06a.388.388,0,0,0,.115.063,5.853,5.853,0,0,0,.631.2Zm19.84-49.31,2.247-.085c.269-.01.5-.059.787-.046a37.311,37.311,0,0,0,4.211-.135,11.252,11.252,0,0,1,1.466-.052c1.656.036,3.222.007,4.656-.086.925-.032,1.793-.092,2.59-.181a.185.185,0,0,0,.116-.07c.014-.028,0-.059-.033-.091a.159.159,0,0,0-.075-.064.862.862,0,0,0-.162-.061,1.88,1.88,0,0,0-.219-.047,2.222,2.222,0,0,0-.236-.024,20.427,20.427,0,0,0-2.768-.044c-.765.055-1.586.083-2.452.084a20.5,20.5,0,0,1-2.418.075,4.445,4.445,0,0,0-1.084.052,9.083,9.083,0,0,1-2.114.056c-.493-.029-.965-.036-1.4-.021-1.053.049-2.062.126-3.04.2-.308.019-.637.027-.982.025l-4.872-.007c-1.17-.009-2.338-.024-3.487-.016a25.368,25.368,0,0,0-2.6.083c-.835.073-1.743.115-2.707.123-1.5.061-2.991.1-4.621.132-1.04.024-2.1.037-3.19.033a4.493,4.493,0,0,0-1.315.1,3.632,3.632,0,0,1-.948.016,39,39,0,0,0-5.111,0c-.193.017-.405.026-.631.027-1.453.027-2.958.039-4.353.067-.368.014-.714.038-1.036.072a.536.536,0,0,0,.264.133,2.459,2.459,0,0,0,.477.083c1.311.1,2.581.143,3.755.123,1.957-.056,4-.061,6.118-.015a29.141,29.141,0,0,0,4.392-.144,17.451,17.451,0,0,1,3.57.028,9.408,9.408,0,0,0,1.588.055,12.275,12.275,0,0,1,1.5-.012c1.15.048,2.259.058,3.3.031,1.023-.047,1.98-.137,3.03-.18s2.647-.063,3.942-.126S540.335,342.991,541.6,342.992Zm-92.762-1.838c.106.194.517.308.965.351a23.63,23.63,0,0,0,4.337.192,11.641,11.641,0,0,1,2.542.026,13.823,13.823,0,0,0,2.938,0,1.265,1.265,0,0,0,.435-.1l.063-.122a1.954,1.954,0,0,0-.29-.081,3.085,3.085,0,0,0-.347-.051l-5.137-.121-.895-.031c-1.631-.1-3.191-.117-4.611-.059Zm9.933,2.907a4.07,4.07,0,0,0,1.194.363,38.591,38.591,0,0,0,5.691.358,4.462,4.462,0,0,0,.967-.11c.126-.01.207-.037.226-.074s-.025-.082-.124-.124l-.625-.213c-1.155-.074-2.294-.129-3.412-.164-1.3-.041-2.457-.02-3.808-.021Zm62.984,46.821a3.026,3.026,0,0,0,1.971.509c.869.063,1.714.093,2.509.09.972-.006,1.969,0,2.938,0a1.913,1.913,0,0,0,.566-.044c.128-.038.173-.095.127-.16a2.107,2.107,0,0,0-.552-.186,4.517,4.517,0,0,0-.742-.1h-.529c-.642-.009-1.307-.028-1.928-.021a10.1,10.1,0,0,1-1.362-.014,13.068,13.068,0,0,1-1.471-.191Zm-58.821-49.437c.2.072.417.141.659.2a15.177,15.177,0,0,0,2.812.243,9.864,9.864,0,0,1,1.2.006,20.7,20.7,0,0,0,2.131.084s.187-.021.249-.026l.145-.282c-.31-.058-.634-.1-.958-.137-1.089-.052-2.161-.081-3.23-.117s-1.441-.054-2.14-.065C463.487,341.376,463.2,341.406,462.932,341.446ZM437,376.713l1.4.544a6.281,6.281,0,0,0,1.231,0,1.037,1.037,0,0,0,.645-.222c.121-.05.137-.122.046-.2a1.451,1.451,0,0,0-.538-.216,7.038,7.038,0,0,0-.818-.19,9.091,9.091,0,0,0-.907-.111Zm12.105-3.093a20.414,20.414,0,0,0-2.611-.063,8.3,8.3,0,0,1-1.873-.013,15.669,15.669,0,0,0-3.461-.067s-.04.077-.2.1.465.066.6.086c1.011.034,2.028.055,2.908.057.547-.012,1.125-.006,1.723.019.823.04,1.605.042,2.317.007a3.014,3.014,0,0,0,.591-.122ZM551.04,341.765a12.481,12.481,0,0,0-1.4-.228,11.57,11.57,0,0,0-1.384-.067,2.39,2.39,0,0,0-.759.1c-.164.061-.217.147-.149.242l1.013.145C549.221,341.932,549.961,341.865,551.04,341.765Zm83.151,7.4a8.191,8.191,0,0,0-1.129-.168,6.257,6.257,0,0,0-1.044,0c-.153.013-.056.109-.086.167a.028.028,0,0,0,0,.047.254.254,0,0,0,.094.051,1.028,1.028,0,0,0,.165.042,1.447,1.447,0,0,0,.189.02,7.409,7.409,0,0,0,1.068.011,2.482,2.482,0,0,0,.731-.139Zm5.531,1.128a.827.827,0,0,0-.323-.144,2.933,2.933,0,0,0-.527-.088,7.261,7.261,0,0,0-.883.06c-.279.029-.089.173.281.254a4.317,4.317,0,0,0,.491.07,3.573,3.573,0,0,0,.466.011,1.444,1.444,0,0,0,.342-.05c.085-.026.135-.061.146-.1ZM477.462,341.7a16.3,16.3,0,0,0-2.176-.166c-.7-.059-.878-.063-.791.052s.575.082.876.125a8.425,8.425,0,0,0,1.187.084,3.716,3.716,0,0,0,.9-.1Zm172.431,27.447c-.441-.032-.873-.052-1.291-.06a.175.175,0,0,0-.106.068c-.014.026,0,.056.027.086a3.7,3.7,0,0,0,.442.111,1.033,1.033,0,0,0,.928-.205Zm61.566,15.789a4.28,4.28,0,0,0,.663.253,3.019,3.019,0,0,0,.331.037,2.142,2.142,0,0,0,.3,0c.108-.038.136-.093.079-.154a2.232,2.232,0,0,0-.415-.107c-.33-.019-.651-.028-.956-.026ZM463.281,340.938a4.414,4.414,0,0,0-1.68-.047A5.747,5.747,0,0,0,463.281,340.938Zm10.226.965a2.993,2.993,0,0,0-1.314-.188.205.205,0,0,0-.126.043c-.016.02,0,.044.038.069a.69.69,0,0,0,.187.067,1.632,1.632,0,0,0,.26.038c.335,0,.654-.01.955-.029Zm33.049-.576c.016-.032.036-.071-.128-.094a1.025,1.025,0,0,0-.146-.031,1.172,1.172,0,0,0-.155-.012l-.033.064Zm19.559,52.329-.371.037.164.023.437.007Zm132.742-44.25c-.137-.02-.274-.039-.3.006a.083.083,0,0,0-.055.03c-.006.012,0,.026.018.041l.274.039ZM637.3,350.2a1.674,1.674,0,0,0-.242.014l-.02.039.274.039ZM449.053,363.086a3.1,3.1,0,0,0-.328-.047l-.137-.02a1.242,1.242,0,0,0,.227.074A1.506,1.506,0,0,0,449.053,363.086Z" fill="#df6951"/>
    </g>
  </g>
</svg>
