<svg xmlns="http://www.w3.org/2000/svg" width="97.124" height="253.063" viewBox="0 0 97.124 253.063">
  <path id="Decore" d="M7.958,13.234c7.027-8.516,24.795-21.61,39.651-5.855S42.423,52.623,30.544,65.4c-5.856,3.549-18.069,9.581-20.077,5.323C7.958,65.4,6.452,54.22,27.031,44.639c13.217-5.678,41.759-11.71,50.191,9.581C81.07,63.446,81.74,84.879,53.632,96.8L18.5,112.238m0,0c-13.384.536-32.624-5.845-2.51-35.662C25.525,71.962,48.613,62.63,64.675,62.2c9.2,1.952,26.9,11.6,24.092,34.6.335,4.613-5.923,16.075-33.628,25.017-6.358,1.419-20.578,4.365-26.6,4.79L6.954,129.8Zm0,0c8.782-2.484,29.51-6.707,42.161-3.726,15.813,3.726,22.084.532,34.632,21.291,2.175,10.646.6,32.469-23.088,34.6s-38.982-1.952-43.667-4.258V140.448m0,0c17.232,1.6,54.207.426,64.245-17.033C97.634,111,98,85.624,60.659,83.495c-9.034.355-28.308,1.49-33.126,3.194l1,37.792c17.567,1.6,54.508,9.155,61.735,26.614,3.848,10.113,5.12,31.4-20.578,35.662-9.536.355-31.119-.958-41.157-9.049m0-37.259v37.259m0-37.259c10.875,2.661,34.833,10.007,43.667,18.1,10.708,8.871,26.4,30.872,3.513,47.9-7.194,2.661-26.3,4.79-45.172-7.984m-2.008-20.759,2.008,20.759m-2.008-20.759c12.046,8.516,36.64,29.169,38.647,43.647.837,8.871-1.405,27.359-17.065,30.34-4.015.71-13.953.639-21.582-5.323l2.008-47.9" transform="translate(0.527 0.536)" fill="none" stroke="#84829a" stroke-width="1"/>
</svg>
