<svg xmlns="http://www.w3.org/2000/svg" width="112.046" height="71.726" viewBox="0 0 112.046 71.726">
  <g id="plane" transform="translate(-490.991 -1191.284)">
    <g id="Group">
      <path id="Vector" d="M562.389,1228.941a11.889,11.889,0,0,0-3.887,1.655c-3.141,2-4.968,4.858-4.081,6.38s4.152,1.133,7.293-.868a12.385,12.385,0,0,0,3.189-2.852,1.564,1.564,0,0,0,.188-1.722l-1.152-1.977A1.411,1.411,0,0,0,562.389,1228.941Z" fill="#d5d6db"/>
      <path id="Vector-2" data-name="Vector" d="M554.5,1201.948a8.623,8.623,0,0,0-2.819,1.2c-2.277,1.451-3.6,3.522-2.96,4.625s3.011.82,5.288-.63a8.992,8.992,0,0,0,2.313-2.069,1.134,1.134,0,0,0,.136-1.248l-.834-1.432A1.023,1.023,0,0,0,554.5,1201.948Z" fill="#d5d6db"/>
      <path id="Vector-3" data-name="Vector" d="M541.688,1203.079a1.02,1.02,0,0,0-.656.163l-5.348,3.408a.942.942,0,0,0-.4,1.223.693.693,0,0,0,.209.225l13.182,9.085,17.833-11.365Z" fill="#029bc5"/>
      <path id="Vector-4" data-name="Vector" d="M598.065,1201.794l-48.532,30.552-28.713,11.425-14.643,2.911-1.611-2.737,80.9-49.947a17.991,17.991,0,0,1,7.785-2.659,14.212,14.212,0,0,1,3.461.116,9.671,9.671,0,0,1,2.8.864c.964.478,2.8.533,3.393,1.486,0,0,1.4,4.373-4.837,7.989Z" fill="#e1e6e9"/>
      <path id="Vector-5" data-name="Vector" d="M550.176,1228.3l-21,33.47a.8.8,0,0,0,.347,1.176,1.016,1.016,0,0,0,.906-.115l5.344-3.39a10.48,10.48,0,0,0,2.674-2.434l40.716-47.869Z" fill="#029bc5"/>
      <path id="Vector-6" data-name="Vector" d="M497.2,1227.186a1.318,1.318,0,0,0-1.119.166l-4.418,2.813a1.267,1.267,0,0,0-.536,1.645.933.933,0,0,0,.225.26l12.377,9.912,13.013-8.128Z" fill="#029bc5"/>
      <path id="Vector-7" data-name="Vector" d="M507.874,1243.771l-6.661,9.33a.251.251,0,0,0,.051.376.3.3,0,0,0,.316-.024l4.128-2.616a.361.361,0,0,0,.085-.075l9.734-11.835Z" fill="#029bc5"/>
      <path id="Vector-8" data-name="Vector" d="M595.911,1191.857a14.491,14.491,0,0,0-3.565-.118,12.1,12.1,0,0,0-2.189,5.379.579.579,0,0,0,.678.6.837.837,0,0,0,.353-.125l7.608-4.844A9.885,9.885,0,0,0,595.911,1191.857Z" fill="#029bc5"/>
      <path id="Vector-9" data-name="Vector" d="M579.332,1200.765l4.967-3.137,4.627,7.869-4.967,3.137Z" fill="#d5d6db"/>
      <g id="Group-2" data-name="Group">
        <path id="Vector-10" data-name="Vector" d="M576.207,1203.878a1.251,1.251,0,0,0-.534,1.628l.492.842a1.164,1.164,0,0,0,1.651.2,1.253,1.253,0,0,0,.516-1.571l-.492-.842a1.148,1.148,0,0,0-1.633-.255Z" fill="#3a556a"/>
        <path id="Vector-11" data-name="Vector" d="M571.742,1206.65a1.251,1.251,0,0,0-.534,1.628l.492.842a1.164,1.164,0,0,0,1.651.2,1.253,1.253,0,0,0,.516-1.571l-.492-.842a1.148,1.148,0,0,0-1.633-.255Z" fill="#3a556a"/>
        <path id="Vector-12" data-name="Vector" d="M567.276,1209.423a1.25,1.25,0,0,0-.533,1.627l.492.842a1.164,1.164,0,0,0,1.651.2,1.253,1.253,0,0,0,.516-1.571l-.492-.842a1.148,1.148,0,0,0-1.634-.254Z" fill="#3a556a"/>
        <path id="Vector-13" data-name="Vector" d="M562.812,1212.2a1.25,1.25,0,0,0-.533,1.627l.492.842a1.164,1.164,0,0,0,1.651.2,1.253,1.253,0,0,0,.516-1.571l-.492-.842a1.149,1.149,0,0,0-1.634-.254Z" fill="#3a556a"/>
        <path id="Vector-14" data-name="Vector" d="M558.348,1214.968a1.251,1.251,0,0,0-.533,1.628l.493.842a1.148,1.148,0,0,0,1.633.254,1.25,1.25,0,0,0,.534-1.626l-.493-.842a1.147,1.147,0,0,0-1.633-.256Z" fill="#3a556a"/>
        <path id="Vector-15" data-name="Vector" d="M553.884,1217.741a1.251,1.251,0,0,0-.533,1.628l.493.842a1.148,1.148,0,0,0,1.633.254,1.25,1.25,0,0,0,.534-1.626l-.493-.842a1.147,1.147,0,0,0-1.633-.256Z" fill="#3a556a"/>
        <path id="Vector-16" data-name="Vector" d="M549.419,1220.513a1.251,1.251,0,0,0-.533,1.627l.493.842a1.148,1.148,0,0,0,1.634.252,1.25,1.25,0,0,0,.533-1.624l-.493-.842A1.148,1.148,0,0,0,549.419,1220.513Z" fill="#3a556a"/>
        <path id="Vector-17" data-name="Vector" d="M544.955,1223.286a1.251,1.251,0,0,0-.533,1.628l.493.842a1.148,1.148,0,0,0,1.634.252,1.25,1.25,0,0,0,.533-1.624l-.493-.842A1.148,1.148,0,0,0,544.955,1223.286Z" fill="#3a556a"/>
        <path id="Vector-18" data-name="Vector" d="M540.49,1226.058a1.251,1.251,0,0,0-.533,1.627l.493.842a1.148,1.148,0,0,0,1.634.252,1.25,1.25,0,0,0,.533-1.624l-.493-.842A1.149,1.149,0,0,0,540.49,1226.058Z" fill="#3a556a"/>
        <path id="Vector-19" data-name="Vector" d="M536.024,1228.832a1.25,1.25,0,0,0-.534,1.626h0l.493.842a1.148,1.148,0,0,0,1.634.252,1.25,1.25,0,0,0,.533-1.624l-.493-.842A1.148,1.148,0,0,0,536.024,1228.832Z" fill="#3a556a"/>
        <path id="Vector-20" data-name="Vector" d="M531.561,1231.6a1.25,1.25,0,0,0-.534,1.626h0l.493.842a1.149,1.149,0,0,0,1.634.252,1.25,1.25,0,0,0,.533-1.624l-.493-.842A1.149,1.149,0,0,0,531.561,1231.6Z" fill="#3a556a"/>
      </g>
    </g>
  </g>
</svg>
