<svg xmlns="http://www.w3.org/2000/svg" width="66.737" height="70" viewBox="0 0 66.737 70">
  <g id="Group" transform="translate(-207 -1186)">
    <path id="Vector" d="M13.1.9,11.217,0,0,16.585H12.518l1.206-.787V1.471Z" transform="translate(217.422 1235.754)" fill="#407093"/>
    <path id="Vector-2" data-name="Vector" d="M17.049,2.032,12.8,0H12L0,17.749l.715.787H5.888Z" transform="translate(211.761 1233.803)" fill="#365e7d"/>
    <path id="Vector-3" data-name="Vector" d="M17.914,0H1.362A1.362,1.362,0,0,0,0,1.362V3.087A1.362,1.362,0,0,0,1.361,4.448H17.914a1.361,1.361,0,0,0,1.362-1.361V1.362A1.362,1.362,0,0,0,17.914,0Z" transform="translate(215.486 1251.552)" fill="#4a80aa"/>
    <path id="Vector-4" data-name="Vector" d="M8.768,3.087V1.362A1.362,1.362,0,0,1,10.129,0H1.362A1.362,1.362,0,0,0,0,1.362V3.087A1.361,1.361,0,0,0,1.362,4.448h8.768A1.361,1.361,0,0,1,8.768,3.087Z" transform="translate(207 1251.552)" fill="#407093"/>
    <path id="Vector-5" data-name="Vector" d="M.8,0A7.986,7.986,0,0,0,5.136,10.939,7.8,7.8,0,0,0,8.475,8.847V7.107Z" transform="translate(227.442 1225.983)" fill="#4a80aa"/>
    <path id="Vector-6" data-name="Vector" d="M5.117,5.667a7.748,7.748,0,0,1,.78-3.4L3.443,0h-1a7.789,7.789,0,0,0,7.9,13.026A7.793,7.793,0,0,1,5.117,5.667Z" transform="translate(222.459 1223.819)" fill="#407093"/>
    <path id="Vector-7" data-name="Vector" d="M7.478.925a3.157,3.157,0,0,0-4.465,0L0,3.938v.382L3.76,8.24l.7.163L7.477,5.389a3.157,3.157,0,0,0,0-4.465Z" transform="translate(265.334 1186)" fill="#ffd086"/>
    <path id="Vector-8" data-name="Vector" d="M8.31,2.415a3.152,3.152,0,0,0-5.3-1.49L0,3.938v.382L1.994,6.4C3.182,5.161,4.363,3.94,4.969,3.333A4.044,4.044,0,0,1,8.31,2.415Z" transform="translate(265.334 1186)" fill="#ffc365"/>
    <g id="Group-2" data-name="Group">
      <path id="Vector-9" data-name="Vector" d="M35.874,5.54c-.035,0-.07,0-.1-.005L.953,2.108A1.056,1.056,0,0,1,1.16.005L35.976,3.432a1.057,1.057,0,0,1-.1,2.108Z" transform="translate(226.623 1189.41)" fill="#365e7d"/>
    </g>
    <g id="Group-3" data-name="Group">
      <path id="Vector-10" data-name="Vector" d="M1.056,8.631A1.057,1.057,0,0,1,.789,6.553L25.639.035a1.056,1.056,0,0,1,.536,2.044L1.325,8.6a1.062,1.062,0,0,1-.269.035Z" transform="translate(236.59 1192.837)" fill="#407093"/>
    </g>
    <g id="Group-4" data-name="Group">
      <path id="Vector-11" data-name="Vector" d="M4.461,36.95A1.057,1.057,0,0,1,3.411,36L.005,1.159a1.056,1.056,0,1,1,2.1-.205L5.513,35.791a1.057,1.057,0,0,1-.949,1.154C4.53,36.949,4.5,36.95,4.461,36.95Z" transform="translate(264.786 1196.186)" fill="#365e7d"/>
    </g>
    <g id="Group-5" data-name="Group">
      <path id="Vector-12" data-name="Vector" d="M1.057,27.059A1.057,1.057,0,0,1,.036,25.732L6.65.786a1.056,1.056,0,1,1,2.042.541L2.078,26.273a1.057,1.057,0,0,1-1.02.786Z" transform="translate(258.168 1196.188)" fill="#407093"/>
    </g>
    <path id="Vector-13" data-name="Vector" d="M0,0H4.272V6.313H0Z" transform="matrix(0.707, -0.707, 0.707, 0.707, 262.307, 1192.964)" fill="#ffc365"/>
    <path id="Vector-14" data-name="Vector" d="M2.287,5.308c.726-.76,1.86-1.946,2.956-3.086L3.021,0,0,3.021Z" transform="translate(262.314 1189.938)" fill="#ffa90f"/>
    <g id="Group-6" data-name="Group">
      <path id="Vector-15" data-name="Vector" d="M6.866,7.922a1.053,1.053,0,0,1-.747-.309L.309,1.8A1.056,1.056,0,0,1,1.8.309l5.81,5.809a1.056,1.056,0,0,1-.747,1.8Z" transform="translate(260.585 1191.23)" fill="#4a80aa"/>
    </g>
    <path id="Vector-16" data-name="Vector" d="M39.532,35.678,4.161,0c-4.689,10.587-5.5,21.951-1.993,31.751,9.7,8.746,24.179,10.089,37.512,4.591Z" transform="translate(228.6 1199.36)" fill="#b5dcff"/>
    <g id="Group-7" data-name="Group">
      <path id="Vector-17" data-name="Vector" d="M12.195,8.174,4.091,0,3.279.08C-2.431,13.927-.764,29.016,8.913,38.693q.879.879,1.817,1.67C6.651,30.574,7.314,18.932,12.195,8.174Z" transform="translate(220.755 1191.376)" fill="#8bcaff"/>
    </g>
    <path id="Vector-18" data-name="Vector" d="M38.905,35.874,3.032,0a1.73,1.73,0,0,0-.965.487L.507,2.047A1.732,1.732,0,0,0,0,3.259l35.76,35.76a1.361,1.361,0,0,0,1.925,0l1.22-1.22A1.362,1.362,0,0,0,38.905,35.874Z" transform="translate(232.46 1196.628)" fill="#dbedff"/>
    <path id="Vector-19" data-name="Vector" d="M9.329,10.729,10.857,9.2a1.7,1.7,0,0,1,1-.486L3.544.4A1.362,1.362,0,0,0,1.619.4L.4,1.619a1.361,1.361,0,0,0,0,1.925l8.433,8.433a1.7,1.7,0,0,1,.5-1.249Z" transform="translate(223.691 1187.973)" fill="#b5dcff"/>
  </g>
</svg>
