<svg xmlns="http://www.w3.org/2000/svg" width="50" height="50" viewBox="0 0 50 50">
  <g id="power-supply_1" data-name="power-supply 1" transform="translate(-1125 -1197)">
    <g id="Group">
      <path id="Vector" d="M49.9,27.848v-5.7a2.022,2.022,0,0,0-2.022-2.022H45.7a2.02,2.02,0,0,1-1.918-1.385,19.756,19.756,0,0,0-1.106-2.669,2.022,2.022,0,0,1,.375-2.339L44.591,12.2a2.022,2.022,0,0,0,0-2.859L40.563,5.308a2.022,2.022,0,0,0-2.859,0L36.162,6.85a2.022,2.022,0,0,1-2.339.375,19.756,19.756,0,0,0-2.669-1.106A2.02,2.02,0,0,1,29.769,4.2V2.022A2.022,2.022,0,0,0,27.747,0h-5.7a2.022,2.022,0,0,0-2.022,2.022V4.2a2.02,2.02,0,0,1-1.385,1.918,19.756,19.756,0,0,0-2.669,1.106,2.022,2.022,0,0,1-2.339-.375L12.095,5.308a2.022,2.022,0,0,0-2.859,0L5.208,9.336a2.022,2.022,0,0,0,0,2.859l1.541,1.541a2.022,2.022,0,0,1,.375,2.339,19.756,19.756,0,0,0-1.106,2.669,2.02,2.02,0,0,1-1.187,1.248c-.228.089-.375.237-.63.237H2.022A2.022,2.022,0,0,0,0,22.252v5.5A2.022,2.022,0,0,0,2.022,29.77H4.2a2.115,2.115,0,0,1,1.918,1.486,19.761,19.761,0,0,0,1.106,2.669,2.022,2.022,0,0,1-.375,2.339L5.409,37.8a2.022,2.022,0,0,0,0,2.859l3.827,3.827a2.022,2.022,0,0,0,2.859,0l1.541-1.541a2.022,2.022,0,0,1,2.339-.375,22.93,22.93,0,0,0,2.87,1.207A2.02,2.02,0,0,1,20.231,45.7v2.179A2.022,2.022,0,0,0,22.253,49.9h5.395a2.022,2.022,0,0,0,2.022-2.022V45.7c0-.256.149-.4.237-.63a2.02,2.02,0,0,1,1.248-1.187,19.756,19.756,0,0,0,2.669-1.106,2.022,2.022,0,0,1,2.339.375L37.7,44.692a2.022,2.022,0,0,0,2.859,0l4.028-4.028a2.022,2.022,0,0,0,0-2.859L43.05,36.263a2.022,2.022,0,0,1-.375-2.339,19.756,19.756,0,0,0,1.106-2.669A2.02,2.02,0,0,1,45.7,29.87h2.179A2.022,2.022,0,0,0,49.9,27.848Z" transform="translate(1125.101 1197)" fill="#b6c4cf"/>
      <path id="Vector-2" data-name="Vector" d="M30.007,25.075a2.023,2.023,0,0,0-.137.731v2.178a2.022,2.022,0,0,1-2.022,2.022h-5.7a2.022,2.022,0,0,1-2.022-2.022V25.807a2.021,2.021,0,0,0-1.385-1.919,19.769,19.769,0,0,1-2.668-1.106,2.022,2.022,0,0,0-2.339.374L12.2,24.7a2.023,2.023,0,0,1-2.86,0L5.308,20.671a2.024,2.024,0,0,1,0-2.86L6.85,16.27a2.022,2.022,0,0,0,.374-2.339,19.769,19.769,0,0,1-1.106-2.668A2.021,2.021,0,0,0,4.2,9.877H2.022A2.022,2.022,0,0,1,0,7.855v-5.7A2.022,2.022,0,0,1,2.022.137H4.2A2.023,2.023,0,0,0,4.932,0c0,.126,0,.253,0,.379a24.7,24.7,0,0,0,24.7,24.7c.127,0,.254,0,.379,0Z" transform="translate(1125 1216.993)" fill="#9facba"/>
      <path id="Vector-3" data-name="Vector" d="M33.2,16.6A16.6,16.6,0,1,1,16.6,0,16.6,16.6,0,0,1,33.2,16.6Z" transform="translate(1133.4 1205.4)" fill="#9facba"/>
      <path id="Vector-4" data-name="Vector" d="M26.157,13.078A13.078,13.078,0,1,1,13.078,0,13.078,13.078,0,0,1,26.157,13.078Z" transform="translate(1136.922 1208.922)" fill="#f8f7f7"/>
    </g>
  </g>
</svg>
